<svg width="700" height="400" viewBox="0 0 700 400" xmlns="http://www.w3.org/2000/svg" style="background: white; font-family: Arial, sans-serif;"><text x="350" y="30" text-anchor="middle" font-size="16" font-weight="bold" fill="#333333">季度销售业绩对比</text><g class="grid-lines"><line x1="80.0" y1="50" x2="80.0" y2="320" stroke="#E0E0E0" stroke-width="1"/><line x1="184.0" y1="50" x2="184.0" y2="320" stroke="#E0E0E0" stroke-width="1"/><line x1="288.0" y1="50" x2="288.0" y2="320" stroke="#E0E0E0" stroke-width="1"/><line x1="392.0" y1="50" x2="392.0" y2="320" stroke="#E0E0E0" stroke-width="1"/><line x1="496.0" y1="50" x2="496.0" y2="320" stroke="#E0E0E0" stroke-width="1"/><line x1="600.0" y1="50" x2="600.0" y2="320" stroke="#E0E0E0" stroke-width="1"/><line x1="80" y1="50.0" x2="600" y2="50.0" stroke="#E0E0E0" stroke-width="1"/><line x1="80" y1="104.0" x2="600" y2="104.0" stroke="#E0E0E0" stroke-width="1"/><line x1="80" y1="158.0" x2="600" y2="158.0" stroke="#E0E0E0" stroke-width="1"/><line x1="80" y1="212.0" x2="600" y2="212.0" stroke="#E0E0E0" stroke-width="1"/><line x1="80" y1="266.0" x2="600" y2="266.0" stroke="#E0E0E0" stroke-width="1"/><line x1="80" y1="320.0" x2="600" y2="320.0" stroke="#E0E0E0" stroke-width="1"/></g><g class="axes"><line x1="80" y1="320" x2="600" y2="320" stroke="#333333" stroke-width="2"/><line x1="80" y1="50" x2="80" y2="320" stroke="#333333" stroke-width="2"/><text x="145.0" y="340" text-anchor="middle" font-size="12" fill="#666666">Q1</text><text x="275.0" y="340" text-anchor="middle" font-size="12" fill="#666666">Q2</text><text x="405.0" y="340" text-anchor="middle" font-size="12" fill="#666666">Q3</text><text x="535.0" y="340" text-anchor="middle" font-size="12" fill="#666666">Q4</text><text x="70" y="325.0" text-anchor="end" font-size="12" fill="#666666">0</text><text x="70" y="271.0" text-anchor="end" font-size="12" fill="#666666">44</text><text x="70" y="217.0" text-anchor="end" font-size="12" fill="#666666">88</text><text x="70" y="163.0" text-anchor="end" font-size="12" fill="#666666">133</text><text x="70" y="109.0" text-anchor="end" font-size="12" fill="#666666">177</text><text x="70" y="55.0" text-anchor="end" font-size="12" fill="#666666">221</text><text x="340" y="380" text-anchor="middle" font-size="14" font-weight="bold" fill="#333333">季度</text><text x="20" y="185" text-anchor="middle" font-size="14" font-weight="bold" fill="#333333" transform="rotate(-90, 20, 185)">销售额(万元)</text></g><g class="columns"><rect x="96.25" y="173.39366515837105" width="26.0" height="146.60633484162895" fill="#5B9BD5" stroke="#333333" stroke-width="1" opacity="0.8" style="cursor: pointer;" title="产品A: 120"/><rect x="128.75" y="197.82805429864254" width="26.0" height="122.17194570135747" fill="#70AD47" stroke="#333333" stroke-width="1" opacity="0.8" style="cursor: pointer;" title="产品B: 100"/><rect x="161.25" y="222.26244343891403" width="26.0" height="97.73755656108597" fill="#FFC000" stroke="#333333" stroke-width="1" opacity="0.8" style="cursor: pointer;" title="产品C: 80"/><rect x="226.25" y="136.74208144796378" width="26.0" height="183.25791855203622" fill="#5B9BD5" stroke="#333333" stroke-width="1" opacity="0.8" style="cursor: pointer;" title="产品A: 150"/><rect x="258.75" y="161.17647058823528" width="26.0" height="158.82352941176472" fill="#70AD47" stroke="#333333" stroke-width="1" opacity="0.8" style="cursor: pointer;" title="产品B: 130"/><rect x="291.25" y="185.6108597285068" width="26.0" height="134.3891402714932" fill="#FFC000" stroke="#333333" stroke-width="1" opacity="0.8" style="cursor: pointer;" title="产品C: 110"/><rect x="356.25" y="100.09049773755657" width="26.0" height="219.90950226244343" fill="#5B9BD5" stroke="#333333" stroke-width="1" opacity="0.8" style="cursor: pointer;" title="产品A: 180"/><rect x="388.75" y="124.52488687782807" width="26.0" height="195.47511312217193" fill="#70AD47" stroke="#333333" stroke-width="1" opacity="0.8" style="cursor: pointer;" title="产品B: 160"/><rect x="421.25" y="148.95927601809956" width="26.0" height="171.04072398190044" fill="#FFC000" stroke="#333333" stroke-width="1" opacity="0.8" style="cursor: pointer;" title="产品C: 140"/><rect x="486.25" y="75.65610859728505" width="26.0" height="244.34389140271495" fill="#5B9BD5" stroke="#333333" stroke-width="1" opacity="0.8" style="cursor: pointer;" title="产品A: 200"/><rect x="518.75" y="112.30769230769229" width="26.0" height="207.6923076923077" fill="#70AD47" stroke="#333333" stroke-width="1" opacity="0.8" style="cursor: pointer;" title="产品B: 170"/><rect x="551.25" y="136.74208144796378" width="26.0" height="183.25791855203622" fill="#FFC000" stroke="#333333" stroke-width="1" opacity="0.8" style="cursor: pointer;" title="产品C: 150"/></g><g class="legend"><rect x="620" y="70" width="15" height="15" fill="#5B9BD5" stroke="#333333" stroke-width="1"/><text x="645" y="82" font-size="11" fill="#333333">产品A</text><rect x="620" y="95" width="15" height="15" fill="#70AD47" stroke="#333333" stroke-width="1"/><text x="645" y="107" font-size="11" fill="#333333">产品B</text><rect x="620" y="120" width="15" height="15" fill="#FFC000" stroke="#333333" stroke-width="1"/><text x="645" y="132" font-size="11" fill="#333333">产品C</text></g></svg>