<svg width="700" height="400" viewBox="0 0 700 400" xmlns="http://www.w3.org/2000/svg" style="background: white; font-family: Arial, sans-serif;"><text x="350" y="30" text-anchor="middle" font-size="16" font-weight="bold" fill="#333333">月度增长趋势</text><g class="grid-lines"><line x1="80.0" y1="50" x2="80.0" y2="320" stroke="#E0E0E0" stroke-width="1"/><line x1="184.0" y1="50" x2="184.0" y2="320" stroke="#E0E0E0" stroke-width="1"/><line x1="288.0" y1="50" x2="288.0" y2="320" stroke="#E0E0E0" stroke-width="1"/><line x1="392.0" y1="50" x2="392.0" y2="320" stroke="#E0E0E0" stroke-width="1"/><line x1="496.0" y1="50" x2="496.0" y2="320" stroke="#E0E0E0" stroke-width="1"/><line x1="600.0" y1="50" x2="600.0" y2="320" stroke="#E0E0E0" stroke-width="1"/><line x1="80" y1="50.0" x2="600" y2="50.0" stroke="#E0E0E0" stroke-width="1"/><line x1="80" y1="104.0" x2="600" y2="104.0" stroke="#E0E0E0" stroke-width="1"/><line x1="80" y1="158.0" x2="600" y2="158.0" stroke="#E0E0E0" stroke-width="1"/><line x1="80" y1="212.0" x2="600" y2="212.0" stroke="#E0E0E0" stroke-width="1"/><line x1="80" y1="266.0" x2="600" y2="266.0" stroke="#E0E0E0" stroke-width="1"/><line x1="80" y1="320.0" x2="600" y2="320.0" stroke="#E0E0E0" stroke-width="1"/></g><g class="axes"><line x1="80" y1="320" x2="600" y2="320" stroke="#333333" stroke-width="2"/><line x1="80" y1="50" x2="80" y2="320" stroke="#333333" stroke-width="2"/><text x="123.33333333333334" y="340" text-anchor="middle" font-size="12" fill="#666666">1月</text><text x="210.0" y="340" text-anchor="middle" font-size="12" fill="#666666">2月</text><text x="296.66666666666663" y="340" text-anchor="middle" font-size="12" fill="#666666">3月</text><text x="383.3333333333333" y="340" text-anchor="middle" font-size="12" fill="#666666">4月</text><text x="470.0" y="340" text-anchor="middle" font-size="12" fill="#666666">5月</text><text x="556.6666666666667" y="340" text-anchor="middle" font-size="12" fill="#666666">6月</text><text x="70" y="325.0" text-anchor="end" font-size="12" fill="#666666">0</text><text x="70" y="271.0" text-anchor="end" font-size="12" fill="#666666">40</text><text x="70" y="217.0" text-anchor="end" font-size="12" fill="#666666">80</text><text x="70" y="163.0" text-anchor="end" font-size="12" fill="#666666">119</text><text x="70" y="109.0" text-anchor="end" font-size="12" fill="#666666">159</text><text x="70" y="55.0" text-anchor="end" font-size="12" fill="#666666">199</text><text x="340" y="380" text-anchor="middle" font-size="14" font-weight="bold" fill="#333333">月份</text><text x="20" y="185" text-anchor="middle" font-size="14" font-weight="bold" fill="#333333" transform="rotate(-90, 20, 185)">金额(万元)</text></g><g class="lines"><path d="M 80.0,184.32160804020103 L 184.0,157.18592964824123 L 288.0,170.75376884422113 L 392.0,130.0502512562814 L 496.0,102.9145728643216 L 600.0,75.7788944723618" fill="none" stroke="#5B9BD5" stroke-width="3" stroke-linecap="round" stroke-linejoin="round"/><circle cx="80.0" cy="184.32160804020103" r="4" fill="#5B9BD5" stroke="white" stroke-width="2" title="收入: 100"/><circle cx="184.0" cy="157.18592964824123" r="4" fill="#5B9BD5" stroke="white" stroke-width="2" title="收入: 120"/><circle cx="288.0" cy="170.75376884422113" r="4" fill="#5B9BD5" stroke="white" stroke-width="2" title="收入: 110"/><circle cx="392.0" cy="130.0502512562814" r="4" fill="#5B9BD5" stroke="white" stroke-width="2" title="收入: 140"/><circle cx="496.0" cy="102.9145728643216" r="4" fill="#5B9BD5" stroke="white" stroke-width="2" title="收入: 160"/><circle cx="600.0" cy="75.7788944723618" r="4" fill="#5B9BD5" stroke="white" stroke-width="2" title="收入: 180"/><path d="M 80.0,292.8643216080402 L 184.0,286.08040201005025 L 288.0,290.1507537688442 L 392.0,279.2964824120603 L 496.0,272.51256281407035 L 600.0,265.7286432160804" fill="none" stroke="#70AD47" stroke-width="3" stroke-linecap="round" stroke-linejoin="round"/><circle cx="80.0" cy="292.8643216080402" r="4" fill="#70AD47" stroke="white" stroke-width="2" title="利润: 20"/><circle cx="184.0" cy="286.08040201005025" r="4" fill="#70AD47" stroke="white" stroke-width="2" title="利润: 25"/><circle cx="288.0" cy="290.1507537688442" r="4" fill="#70AD47" stroke="white" stroke-width="2" title="利润: 22"/><circle cx="392.0" cy="279.2964824120603" r="4" fill="#70AD47" stroke="white" stroke-width="2" title="利润: 30"/><circle cx="496.0" cy="272.51256281407035" r="4" fill="#70AD47" stroke="white" stroke-width="2" title="利润: 35"/><circle cx="600.0" cy="265.7286432160804" r="4" fill="#70AD47" stroke="white" stroke-width="2" title="利润: 40"/></g><g class="legend"><rect x="620" y="70" width="15" height="15" fill="#5B9BD5" stroke="#333333" stroke-width="1"/><text x="645" y="82" font-size="11" fill="#333333">收入</text><rect x="620" y="95" width="15" height="15" fill="#70AD47" stroke="#333333" stroke-width="1"/><text x="645" y="107" font-size="11" fill="#333333">利润</text></g></svg>