<svg width="500" height="400" viewBox="0 0 500 400" xmlns="http://www.w3.org/2000/svg" style="background: white; font-family: Arial, sans-serif;"><text x="250" y="30" text-anchor="middle" font-size="16" font-weight="bold" fill="#333333">市场份额分布</text><g class="pie-chart"><path d="M 186 185 L 276.0 185.0 A 90 90 0 0 1 133.09932729367742 257.8115294937453 Z" fill="#5B9BD5" stroke="#FFFFFF" stroke-width="2" title="华东: 35 (35.0%)"/><text x="214.60140148359145" y="241.13341102386715" text-anchor="middle" font-size="10" fill="white" font-weight="bold">35%</text><path d="M 186 185 L 133.09932729367742 257.8115294937453 A 90 90 0 0 1 113.18847050625473 132.09932729367742 Z" fill="#70AD47" stroke="#FFFFFF" stroke-width="2" title="华南: 25 (25.0%)"/><text x="123.77563454250634" y="194.85537129753456" text-anchor="middle" font-size="10" fill="white" font-weight="bold">25%</text><path d="M 186 185 L 113.18847050625473 132.09932729367742 A 90 90 0 0 1 213.81152949374524 99.40491353343617 Z" fill="#FFC000" stroke="#FFFFFF" stroke-width="2" title="华北: 20 (20.0%)"/><text x="166.5319293543783" y="125.08343947340533" text-anchor="middle" font-size="10" fill="white" font-weight="bold">20%</text><path d="M 186 185 L 213.81152949374524 99.40491353343617 A 90 90 0 0 1 271.5950864665638 157.1884705062547 Z" fill="#E15759" stroke="#FFFFFF" stroke-width="2" title="华中: 15 (15.0%)"/><text x="230.54772721475248" y="140.4522727852475" text-anchor="middle" font-size="10" fill="white" font-weight="bold">15%</text><path d="M 186 185 L 271.5950864665638 157.1884705062547 A 90 90 0 0 1 276.0 184.99999999999997 Z" fill="#A5A5A5" stroke="#FFFFFF" stroke-width="2" title="其他: 5 (5.0%)"/></g><g class="legend"><rect x="420" y="70" width="15" height="15" fill="#5B9BD5" stroke="#333333" stroke-width="1"/><text x="445" y="82" font-size="11" fill="#333333">华东</text><rect x="420" y="95" width="15" height="15" fill="#70AD47" stroke="#333333" stroke-width="1"/><text x="445" y="107" font-size="11" fill="#333333">华南</text><rect x="420" y="120" width="15" height="15" fill="#FFC000" stroke="#333333" stroke-width="1"/><text x="445" y="132" font-size="11" fill="#333333">华北</text><rect x="420" y="145" width="15" height="15" fill="#E15759" stroke="#333333" stroke-width="1"/><text x="445" y="157" font-size="11" fill="#333333">华中</text><rect x="420" y="170" width="15" height="15" fill="#A5A5A5" stroke="#333333" stroke-width="1"/><text x="445" y="182" font-size="11" fill="#333333">其他</text></g></svg>